{"glyphs":{"0":{"ha":771,"x_min":0,"x_max":0,"o":"m 703 332 b 703 319 703 328 703 324 b 703 307 703 315 703 311 b 693 243 701 285 699 264 l 511 425 l 511 622 b 386 744 507 690 453 744 b 271 665 335 744 290 711 l 131 806 b 217 886 154 838 183 865 b 386 936 265 918 324 936 b 556 886 449 936 507 918 b 701 628 640 831 697 736 b 701 615 701 624 701 619 b 701 603 701 611 701 607 m 389 194 b 504 275 442 194 486 228 l 644 135 b 513 26 611 88 565 50 b 389 0 475 10 433 0 b 265 26 344 0 303 10 b 74 300 158 72 82 176 b 74 321 74 307 74 314 b 74 342 74 328 74 335 l 74 594 b 74 615 74 601 74 608 b 74 636 74 622 74 629 b 82 694 75 656 78 675 l 264 513 l 264 307 b 388 190 271 242 324 190 "},"1":{"ha":692,"x_min":0,"x_max":0,"o":"m 419 438 l 622 235 l 622 0 l 419 0 m 622 935 l 622 400 l 419 603 l 419 733 l 356 669 l 69 669 l 336 936 "},"2":{"ha":904,"x_min":0,"x_max":0,"o":"m 213 547 b 204 621 207 571 204 596 b 229 743 204 664 213 706 b 294 840 244 779 267 813 b 518 933 351 897 431 933 b 699 876 583 933 646 914 b 811 732 750 840 789 790 b 832 622 825 697 832 660 b 754 415 832 546 804 472 b 740 399 750 410 746 404 l 603 536 l 613 546 b 640 621 631 567 640 593 b 522 739 640 686 588 739 b 438 703 489 739 458 725 b 404 621 417 682 404 653 b 425 554 404 597 411 574 l 426 551 l 433 540 l 219 540 m 804 196 l 804 1 l 64 1 l 518 456 l 656 318 l 533 196 "},"3":{"ha":693,"x_min":0,"x_max":0,"o":"m 244 201 l 438 8 b 386 0 421 4 404 1 b 369 0 381 0 375 0 b 353 0 364 0 358 0 l 71 0 l 71 203 l 122 203 b 122 203 122 203 122 203 l 244 203 m 506 463 b 621 250 575 417 621 339 b 617 200 621 233 619 217 b 542 67 606 147 579 101 l 399 210 b 418 240 408 217 415 228 b 418 250 418 243 418 246 b 394 293 418 275 401 289 b 367 301 386 299 376 301 l 258 413 l 258 518 l 367 624 b 394 632 376 624 386 626 b 418 675 401 636 418 650 b 418 686 418 679 418 683 b 376 725 414 707 397 722 l 67 725 l 67 928 l 349 928 b 369 928 356 928 363 928 b 390 928 376 928 383 928 b 619 726 504 919 597 836 b 624 676 622 710 624 693 b 508 464 624 588 578 510 "},"4":{"ha":732,"x_min":0,"x_max":0,"o":"m 663 931 l 663 271 l 564 369 l 69 369 l 69 931 l 271 931 l 271 571 l 461 571 l 461 931 m 461 308 l 663 107 l 663 0 l 461 0 "},"5":{"ha":761,"x_min":0,"x_max":0,"o":"m 388 203 b 451 243 413 211 435 225 l 593 101 b 414 0 546 51 483 15 l 71 0 l 71 201 l 388 201 m 676 456 b 693 349 688 422 693 386 b 663 204 693 297 682 249 b 663 200 663 203 663 201 l 492 371 b 449 454 486 403 471 432 l 449 454 l 92 454 b 92 454 92 454 92 454 l 72 454 l 72 565 l 74 565 l 74 929 l 667 929 l 667 728 l 274 728 l 274 665 b 274 665 274 665 274 665 l 274 661 l 503 661 b 618 564 549 638 588 604 b 675 453 643 531 663 493 "},"6":{"ha":714,"x_min":0,"x_max":0,"o":"m 597 444 b 646 286 628 399 646 344 b 358 -1 646 128 517 -1 b 271 11 328 -1 299 3 b 199 44 244 19 221 31 b 118 128 167 67 139 94 b 71 278 89 171 72 222 b 71 286 71 281 71 283 b 71 294 71 289 71 292 l 71 724 l 279 932 l 564 932 l 272 640 l 272 563 b 360 575 300 571 329 575 b 518 529 418 575 472 558 l 364 375 b 360 375 363 375 361 375 b 272 292 313 375 274 338 l 272 285 b 272 285 272 285 272 285 b 353 201 274 240 308 204 b 357 201 354 201 356 201 b 443 288 404 201 443 240 b 443 292 443 289 443 290 l 597 446 "},"7":{"ha":704,"x_min":0,"x_max":0,"o":"m 264 381 l 422 222 l 354 0 l 147 0 m 635 917 l 574 718 l 460 346 l 301 504 l 367 718 l 69 718 l 69 917 "},"8":{"ha":704,"x_min":0,"x_max":0,"o":"m 563 467 b 633 292 604 419 631 358 b 633 279 633 288 633 283 b 351 -3 633 124 507 -3 b 69 279 196 -3 69 124 b 140 467 69 351 96 417 b 69 654 96 517 69 582 b 118 811 69 713 88 767 l 269 660 b 269 656 269 658 269 657 b 354 571 269 608 307 571 b 358 571 356 571 357 571 b 436 654 401 574 436 610 b 436 654 436 654 436 654 b 351 739 436 701 399 739 b 351 739 351 739 351 739 l 199 892 b 353 938 243 921 296 938 b 635 656 508 938 635 811 b 589 501 635 599 618 546 b 564 469 582 490 574 479 m 350 194 b 435 279 397 194 435 232 b 350 364 435 326 397 364 b 265 279 303 364 265 326 b 350 194 265 232 303 194 "},"9":{"ha":707,"x_min":0,"x_max":0,"o":"m 117 482 b 71 639 88 526 71 581 b 354 922 71 796 197 922 b 439 910 383 922 413 918 b 510 876 464 901 488 890 b 590 796 542 856 569 828 b 636 646 618 753 635 701 b 636 638 636 643 636 640 b 636 629 636 635 636 632 l 636 207 l 431 1 l 150 1 l 438 289 l 438 365 b 353 353 411 357 382 353 b 197 399 296 353 242 369 l 349 550 b 353 550 350 550 351 550 b 438 632 399 550 436 586 l 438 639 b 438 639 438 639 438 639 b 358 719 436 682 401 717 b 354 719 357 719 356 719 b 268 633 307 719 268 681 b 268 629 268 632 268 631 l 117 478 "},"\n":{"ha":0,"x_min":0,"x_max":0,"o":""},"\r":{"ha":0,"x_min":0,"x_max":0,"o":""}," ":{"ha":660,"x_min":0,"x_max":0,"o":""},"!":{"ha":338,"x_min":0,"x_max":0,"o":"m 268 964 l 268 182 l 69 381 l 69 964 m 69 218 l 268 19 l 268 0 l 69 0 "},"?":{"ha":821,"x_min":0,"x_max":0,"o":"m 394 182 l 544 32 l 544 0 l 339 0 l 339 238 m 726 794 b 750 668 742 756 750 713 b 667 446 750 583 718 506 b 632 411 656 433 644 422 b 600 388 622 403 611 394 l 544 332 l 544 201 l 479 267 l 417 329 l 339 407 l 339 417 l 529 607 b 544 669 538 624 544 644 b 535 719 544 688 542 704 b 486 781 525 744 508 765 b 410 804 464 796 438 804 b 275 686 340 804 283 753 l 68 686 b 410 1011 76 867 226 1011 b 725 797 553 1011 675 922 "},"A":{"ha":1318,"x_min":0,"x_max":0,"o":"m 478 671 l 615 443 l 346 0 l 69 0 m 1249 -1 l 972 -1 l 915 93 l 522 744 l 660 971 "},"B":{"ha":965,"x_min":0,"x_max":0,"o":"m 893 678 b 813 481 893 604 864 533 b 893 283 864 428 893 357 b 885 214 893 260 890 236 b 635 3 856 97 756 13 b 614 3 628 3 621 3 l 68 3 l 68 454 l 304 218 l 304 208 l 561 208 b 633 281 601 208 633 240 b 561 353 633 321 601 353 l 304 353 l 304 325 l 68 561 l 68 956 l 614 956 b 888 743 743 956 856 868 b 896 674 893 721 896 697 m 304 663 l 367 600 l 560 600 b 632 672 600 600 632 632 b 560 744 632 713 600 744 l 303 744 "},"C":{"ha":1114,"x_min":0,"x_max":0,"o":"m 329 579 l 150 758 l 160 771 b 564 982 251 903 403 982 b 874 872 676 982 786 943 b 1043 599 960 803 1019 706 l 1049 575 l 799 575 l 793 586 b 739 667 781 617 763 643 b 563 740 692 714 629 740 b 386 667 496 740 433 714 b 339 601 367 647 351 625 m 799 404 l 1049 404 l 1043 381 b 951 188 1028 311 996 244 b 789 53 908 132 851 85 b 756 38 778 47 767 42 b 564 0 694 13 631 0 b 217 144 433 0 310 51 b 72 492 124 238 72 361 b 100 656 72 547 82 603 l 110 685 l 315 479 l 315 472 b 386 317 319 414 344 358 b 542 246 428 275 483 250 b 576 244 553 244 565 244 b 650 260 601 246 626 251 b 672 269 658 263 665 265 b 738 317 696 282 718 297 b 792 397 761 340 779 367 "},"D":{"ha":1088,"x_min":0,"x_max":0,"o":"m 939 744 b 1022 475 993 665 1022 572 b 939 207 1022 379 993 286 b 935 203 938 206 936 204 b 544 -1 846 75 700 -1 l 69 -1 l 69 575 l 307 338 l 307 236 l 544 236 b 561 236 550 236 556 236 b 740 338 633 240 699 278 b 740 339 740 339 740 339 b 781 475 767 379 781 426 b 739 611 781 524 767 571 b 739 611 739 611 739 611 l 739 611 b 544 714 694 675 622 714 l 307 714 l 307 444 l 69 682 l 69 953 l 544 953 b 935 749 700 953 846 876 b 935 749 935 749 935 749 "},"E":{"ha":936,"x_min":0,"x_max":0,"o":"m 865 235 l 865 -1 l 69 -1 l 69 539 l 306 303 l 306 236 m 357 356 l 68 644 l 68 953 l 865 953 l 865 717 l 331 717 l 454 593 l 865 593 l 865 357 "},"F":{"ha":963,"x_min":0,"x_max":0,"o":"m 292 594 l 631 594 l 631 358 l 306 358 l 306 0 l 69 0 l 69 818 m 892 954 l 892 718 l 304 718 l 304 690 l 68 926 l 68 954 "},"G":{"ha":1093,"x_min":0,"x_max":0,"o":"m 342 604 l 172 774 l 183 788 b 547 956 274 894 407 956 b 817 871 644 956 738 926 b 1013 582 917 803 986 700 l 1018 558 l 774 558 l 768 569 b 715 647 756 599 738 625 b 546 718 669 693 610 718 b 376 647 482 718 422 693 b 353 619 368 639 360 629 m 1025 397 l 1025 1 l 789 1 l 789 65 b 549 0 717 22 633 0 b 211 140 421 0 301 50 b 71 478 121 231 71 350 b 117 683 71 550 86 619 l 128 708 l 311 525 l 310 515 b 307 478 308 503 307 490 b 378 308 307 414 332 354 b 547 238 424 263 483 238 b 685 281 597 238 644 253 l 599 400 "},"H":{"ha":971,"x_min":0,"x_max":0,"o":"m 69 568 l 306 332 l 306 0 l 69 0 m 901 953 l 901 -1 l 665 -1 l 665 357 l 388 357 l 69 675 l 69 954 l 306 954 l 306 774 l 485 594 l 665 594 l 665 954 "},"I":{"ha":375,"x_min":0,"x_max":0,"o":"m 306 954 l 306 600 l 69 836 l 69 954 m 69 728 l 306 492 l 306 0 l 69 0 "},"J":{"ha":896,"x_min":0,"x_max":0,"o":"m 826 935 l 826 469 l 589 707 l 589 933 m 818 369 l 818 369 l 818 369 b 506 8 814 188 681 38 l 506 8 b 483 4 499 7 492 6 b 467 4 478 4 472 4 b 450 4 461 4 456 4 b 442 4 447 4 444 4 b 417 4 433 4 425 4 b 388 7 407 4 397 6 b 388 7 388 7 388 7 b 379 7 385 7 382 7 b 67 354 208 35 76 178 l 296 354 b 308 314 299 339 303 325 b 336 272 317 294 328 281 b 344 264 339 269 342 267 b 349 260 346 263 347 261 b 379 240 357 253 367 246 b 383 240 381 240 382 240 b 414 231 393 236 403 233 b 414 231 414 231 414 231 b 426 231 418 231 422 231 b 435 231 429 231 432 231 b 443 231 438 231 440 231 b 451 231 446 231 449 231 b 460 231 454 231 457 231 b 547 272 504 235 533 258 b 589 354 561 286 583 314 l 589 600 "},"K":{"ha":1124,"x_min":0,"x_max":0,"o":"m 69 542 l 306 306 l 306 0 l 69 0 m 1054 1 l 719 1 l 69 651 l 69 956 l 81 956 l 458 596 l 1024 969 l 1024 686 l 1015 681 l 629 425 "},"L":{"ha":803,"x_min":0,"x_max":0,"o":"m 347 231 l 578 0 l 69 0 l 69 954 l 306 954 l 306 236 l 342 236 m 733 236 l 733 0 l 686 0 l 450 236 "},"M":{"ha":1093,"x_min":0,"x_max":0,"o":"m 69 549 l 306 313 l 306 0 l 69 0 m 1021 954 l 1021 0 l 785 0 l 785 421 l 544 179 l 304 421 l 304 421 l 68 657 l 68 954 l 106 954 l 546 514 l 986 954 "},"N":{"ha":1018,"x_min":0,"x_max":0,"o":"m 69 549 l 306 313 l 306 0 l 69 0 m 949 981 l 949 -1 l 726 -1 l 717 8 l 457 268 l 306 419 l 306 419 l 69 656 l 69 953 l 107 953 l 113 947 l 713 347 l 713 744 l 718 750 "},"O":{"ha":1093,"x_min":0,"x_max":0,"o":"m 883 817 b 1024 479 974 726 1024 607 b 924 186 1024 372 989 271 l 910 169 l 742 338 l 750 350 b 786 478 774 388 786 432 b 715 647 786 542 761 601 b 546 718 669 693 610 718 b 418 682 500 718 456 706 l 406 674 l 238 842 l 254 856 b 547 956 339 921 440 956 b 885 815 675 956 794 906 m 688 283 l 856 115 l 839 101 b 546 1 754 36 653 1 b 208 142 418 1 299 51 b 68 479 118 232 68 351 b 168 772 68 586 103 688 l 182 789 l 350 621 l 342 608 b 306 481 318 571 306 526 b 376 311 306 417 331 357 b 546 240 422 265 482 240 b 674 276 592 240 636 253 "},"P":{"ha":922,"x_min":0,"x_max":0,"o":"m 844 740 b 853 675 850 719 853 697 b 793 501 853 611 832 551 b 771 476 786 493 779 485 b 574 394 718 424 649 394 l 278 394 l 69 603 l 69 951 l 575 951 b 772 869 650 951 719 922 b 846 738 808 833 833 788 m 593 625 b 610 674 604 639 610 656 b 607 693 610 681 608 688 b 586 731 604 707 597 719 b 528 754 571 746 550 754 l 304 754 l 304 722 l 433 593 l 526 593 b 585 617 549 593 569 601 b 592 625 588 619 590 622 l 592 625 m 69 497 l 306 261 l 306 4 l 69 4 "},"Q":{"ha":1093,"x_min":0,"x_max":0,"o":"m 867 150 l 1018 -1 l 544 -1 b 271 86 446 -1 351 29 b 124 254 210 129 158 188 b 68 478 88 322 68 400 b 193 799 68 597 113 711 b 283 876 219 828 250 854 b 544 954 361 928 451 954 b 882 814 672 954 792 904 b 1022 476 972 724 1022 604 b 944 215 1022 383 996 293 l 932 196 l 760 368 l 765 381 b 786 479 779 411 786 444 b 715 649 786 543 761 603 b 546 719 669 694 610 719 b 447 699 511 719 478 713 b 376 649 421 686 397 669 b 364 633 372 644 368 639 b 307 478 328 590 307 535 b 378 308 307 414 332 354 b 544 238 422 264 482 239 l 544 238 l 549 238 l 783 238 l 789 232 "},"R":{"ha":1113,"x_min":0,"x_max":0,"o":"m 1043 -1 l 676 -1 l 671 4 l 304 369 l 304 368 l 68 604 l 68 953 l 706 953 b 760 947 724 953 742 951 b 901 871 814 936 863 910 b 975 739 938 835 963 789 b 983 674 981 718 983 696 b 982 644 983 664 983 654 b 896 444 979 568 949 497 b 693 358 842 390 769 360 l 693 358 l 690 358 b 678 358 686 358 682 358 m 663 596 b 679 597 668 596 674 596 b 692 601 683 599 688 600 b 721 621 703 606 713 613 b 725 625 722 622 724 624 b 725 625 725 625 725 625 l 725 625 b 725 625 725 625 725 625 l 725 625 b 729 629 726 626 728 628 b 731 633 731 631 731 632 b 735 642 732 636 733 639 b 742 676 739 653 742 664 b 742 681 742 678 742 679 b 742 685 742 682 742 683 b 740 693 742 688 742 690 b 736 706 739 697 738 701 l 322 706 l 435 593 l 661 593 m 71 500 l 307 264 l 307 1 l 71 1 "},"S":{"ha":1093,"x_min":0,"x_max":0,"o":"m 1024 954 l 1024 718 l 651 718 l 415 954 m 1003 367 b 1015 281 1011 339 1015 310 b 1003 194 1015 251 1011 222 b 897 43 985 135 947 81 b 718 -17 846 4 783 -17 l 61 -17 l 61 219 l 718 219 b 779 281 751 219 779 247 b 718 342 779 314 751 342 l 358 342 b 272 354 329 342 300 346 b 147 429 225 368 182 394 b 72 554 113 464 86 507 b 60 640 64 582 60 611 b 72 726 60 669 64 699 b 147 851 86 774 113 817 b 272 926 182 886 225 913 b 293 932 279 929 286 931 l 303 935 l 535 703 l 358 703 b 297 642 325 703 297 675 b 358 581 297 608 325 581 l 718 581 b 722 581 719 581 721 581 l 724 581 b 728 581 725 581 726 581 l 731 581 b 739 581 733 581 736 581 b 743 581 740 581 742 581 l 744 581 b 749 581 746 581 747 581 b 749 581 749 581 749 581 l 749 581 b 757 581 751 581 754 581 l 757 581 b 761 581 758 581 760 581 l 763 581 b 771 581 765 581 768 581 l 775 581 b 783 581 778 581 781 581 l 785 581 b 793 578 788 581 790 579 l 794 578 l 797 576 b 801 576 799 576 800 576 l 801 576 b 810 572 804 575 807 574 l 811 572 b 828 568 817 571 822 569 l 829 568 b 838 564 832 567 835 565 l 839 564 b 851 560 843 563 847 561 l 851 560 b 856 560 853 560 854 560 l 856 560 b 864 556 858 558 861 557 l 864 556 b 876 547 868 553 872 550 l 876 547 l 883 543 b 892 539 886 542 889 540 l 892 539 b 900 535 894 538 897 536 l 901 533 b 918 521 907 529 913 525 l 918 521 b 925 515 919 519 922 518 b 929 511 926 514 928 513 l 929 511 b 929 511 929 511 929 511 l 932 508 b 936 507 933 508 935 508 l 936 507 b 940 503 938 506 939 504 l 940 503 b 953 490 944 499 949 494 b 957 486 954 489 956 488 l 960 483 b 960 479 960 482 960 481 l 960 479 b 964 475 961 478 963 476 b 964 475 964 475 964 475 l 965 474 b 969 465 967 471 968 468 l 969 465 b 974 461 971 464 972 463 l 974 461 b 978 457 975 460 976 458 l 979 454 b 992 429 983 446 988 438 l 993 428 b 1001 411 996 422 999 417 l 1003 408 b 1003 408 1003 408 1003 408 l 1003 408 l 1007 396 b 1007 396 1007 396 1007 396 l 1007 396 b 1007 392 1007 394 1007 393 l 1011 382 "},"T":{"ha":1093,"x_min":0,"x_max":0,"o":"m 428 494 l 664 258 l 664 0 l 428 0 m 1024 954 l 1024 718 l 664 718 l 664 367 l 428 603 l 428 718 l 69 718 l 69 954 "},"U":{"ha":1093,"x_min":0,"x_max":0,"o":"m 1024 956 l 1024 478 b 974 264 1024 403 1007 331 b 840 100 942 200 896 143 l 826 90 l 656 261 l 675 274 b 717 307 690 283 704 294 b 788 476 763 353 788 413 l 788 954 m 569 242 l 758 53 l 732 42 b 544 4 672 17 610 4 b 275 88 447 4 354 33 b 68 481 146 176 68 324 l 68 743 l 306 506 l 306 479 b 376 310 306 415 331 356 b 546 239 422 264 482 239 b 563 239 551 239 557 239 m 304 614 l 67 851 l 67 958 l 304 958 "},"V":{"ha":1069,"x_min":0,"x_max":0,"o":"m 447 735 l 665 274 l 661 265 l 535 0 l 69 981 l 331 981 m 1001 979 l 733 414 l 733 414 l 708 363 l 578 639 l 582 647 l 739 979 "},"W":{"ha":1364,"x_min":0,"x_max":0,"o":"m 803 611 l 514 0 l 69 936 l 329 936 l 532 510 l 675 813 l 693 850 l 722 786 m 1296 938 l 978 269 l 850 1 l 831 43 l 721 272 l 721 272 l 719 275 l 836 519 l 836 519 l 849 547 l 1035 938 "},"X":{"ha":1350,"x_min":0,"x_max":0,"o":"m 472 393 l 639 226 l 404 0 l 69 0 l 104 35 m 1282 6 l 947 6 l 533 422 l 276 674 l 276 1008 l 310 975 l 693 596 l 1075 976 l 1108 1010 l 1108 675 l 1103 669 l 860 428 l 1163 125 l 1250 36 "},"Y":{"ha":1428,"x_min":0,"x_max":0,"o":"m 596 319 l 832 83 l 832 0 l 596 0 m 1360 954 l 833 428 l 833 192 l 801 224 l 597 428 l 597 428 l 71 954 l 406 954 l 411 949 l 715 644 l 1025 954 "},"Z":{"ha":1428,"x_min":0,"x_max":0,"o":"m 640 236 l 404 0 l 69 0 l 788 718 l 225 718 l 225 954 l 1358 954 l 640 236 m 749 236 l 1179 236 l 1179 0 l 513 0 "},"a":{"ha":971,"x_min":0,"x_max":0,"o":"m 357 474 l 454 313 l 264 0 l 69 0 m 900 -1 l 706 -1 l 665 65 l 388 525 l 485 685 "},"b":{"ha":722,"x_min":0,"x_max":0,"o":"m 653 476 b 596 338 653 425 632 375 b 653 199 632 300 653 250 b 647 150 653 182 651 165 b 471 1 626 68 556 8 b 454 1 465 1 460 1 l 69 1 l 69 319 l 236 153 l 236 146 l 417 146 b 468 197 444 146 468 169 b 417 249 468 225 444 249 l 236 249 l 236 229 l 69 396 l 69 674 l 454 674 b 647 524 546 674 625 613 b 653 475 651 508 653 492 m 236 465 l 281 421 l 417 421 b 468 472 444 421 468 444 b 417 524 468 500 444 524 l 236 524 "},"c":{"ha":826,"x_min":0,"x_max":0,"o":"m 249 406 l 122 532 l 129 542 b 415 690 194 635 301 690 b 633 613 494 690 572 663 b 754 421 694 564 738 496 l 758 404 l 582 404 l 579 413 b 542 469 571 433 558 453 b 417 521 508 503 464 521 b 292 469 369 521 325 503 b 258 424 278 456 267 440 m 582 282 l 758 282 l 754 265 b 690 128 743 215 721 168 b 575 32 660 89 619 56 b 550 21 567 28 558 24 b 414 -7 507 3 461 -7 b 168 94 321 -7 233 29 b 67 340 103 160 67 247 b 86 456 67 379 74 418 l 93 476 l 238 332 l 238 326 b 288 217 240 285 258 246 b 397 167 317 188 356 169 b 422 167 406 167 414 167 b 475 179 440 168 458 172 b 492 186 481 181 486 183 b 538 219 508 194 524 206 b 575 276 554 236 567 256 "},"d":{"ha":808,"x_min":0,"x_max":0,"o":"m 675 531 b 735 340 714 475 735 408 b 678 151 735 272 715 207 b 678 147 678 150 678 149 b 403 3 615 57 513 3 l 68 3 l 68 408 l 235 242 l 235 171 l 403 171 b 415 171 407 171 411 171 b 542 242 467 174 513 200 b 542 242 542 242 542 242 b 571 338 561 269 571 303 b 542 433 571 372 561 406 b 542 433 542 433 542 433 l 542 433 b 404 506 510 479 458 506 l 236 506 l 236 315 l 69 482 l 69 672 l 404 672 b 679 528 514 672 617 618 b 679 528 679 528 679 528 "},"e":{"ha":700,"x_min":0,"x_max":0,"o":"m 631 167 l 631 0 l 69 0 l 69 381 l 236 214 l 236 167 m 271 254 l 68 457 l 68 674 l 629 674 l 629 507 l 253 507 l 340 419 l 631 419 l 631 253 "},"f":{"ha":719,"x_min":0,"x_max":0,"o":"m 226 419 l 465 419 l 465 253 l 236 253 l 236 0 l 69 0 l 69 576 m 650 672 l 650 506 l 236 506 l 236 486 l 69 653 l 69 672 "},"g":{"ha":811,"x_min":0,"x_max":0,"o":"m 261 426 l 142 546 l 150 556 b 406 675 214 632 307 675 b 597 615 474 675 540 654 b 735 411 668 567 717 494 l 739 394 l 567 394 l 564 403 b 528 457 556 424 543 442 b 407 507 496 489 453 507 b 286 457 361 507 318 489 b 269 438 281 451 275 444 m 742 282 l 742 3 l 575 3 l 575 47 b 406 1 524 17 465 1 b 167 100 315 1 231 36 b 68 339 103 164 68 249 b 101 485 68 390 79 439 l 110 501 l 239 372 l 238 365 b 236 340 236 357 236 349 b 286 219 236 294 254 251 b 407 169 318 188 361 169 b 503 199 442 169 475 179 l 442 282 "},"h":{"ha":725,"x_min":0,"x_max":0,"o":"m 69 401 l 236 235 l 236 0 l 69 0 m 656 672 l 656 0 l 489 0 l 489 253 l 293 253 l 69 476 l 69 674 l 236 674 l 236 546 l 363 419 l 489 419 l 489 674 "},"i":{"ha":306,"x_min":0,"x_max":0,"o":"m 236 672 l 236 422 l 69 589 l 69 672 m 69 514 l 236 347 l 236 0 l 69 0 "},"j":{"ha":672,"x_min":0,"x_max":0,"o":"m 603 658 l 603 331 l 435 499 l 435 658 m 601 257 l 601 257 l 601 257 b 381 3 599 129 504 24 l 381 3 b 364 0 375 1 369 0 b 351 0 360 0 356 0 b 339 0 347 0 343 0 b 335 0 338 0 336 0 b 318 0 329 0 324 0 b 297 3 311 0 304 1 b 297 3 297 3 297 3 b 293 3 296 3 294 3 b 72 247 172 22 79 124 l 233 247 b 242 218 235 236 238 226 b 263 189 249 204 257 194 b 268 185 264 188 265 186 b 272 181 269 183 271 182 b 293 168 278 176 285 172 b 297 168 294 168 296 168 b 319 161 304 165 311 163 b 319 161 319 161 319 161 b 328 161 322 161 325 161 b 332 161 329 161 331 161 b 336 161 333 161 335 161 b 340 161 338 161 339 161 b 344 161 342 161 343 161 b 406 190 375 164 396 181 b 435 249 415 200 431 219 l 435 422 "},"k":{"ha":833,"x_min":0,"x_max":0,"o":"m 69 382 l 236 215 l 236 0 l 69 0 m 763 -1 l 526 -1 l 68 457 l 68 672 l 76 672 l 343 419 l 742 683 l 742 483 l 736 479 l 464 299 "},"l":{"ha":607,"x_min":0,"x_max":0,"o":"m 265 163 l 428 0 l 69 0 l 69 672 l 236 672 l 236 167 l 261 167 m 538 167 l 538 0 l 504 0 l 338 167 "},"m":{"ha":811,"x_min":0,"x_max":0,"o":"m 69 386 l 236 219 l 236 0 l 69 0 m 743 672 l 743 0 l 576 0 l 576 296 l 407 126 l 238 296 l 238 296 l 71 463 l 71 672 l 97 672 l 407 363 l 717 672 "},"n":{"ha":758,"x_min":0,"x_max":0,"o":"m 69 386 l 236 219 l 236 0 l 69 0 m 689 692 l 689 0 l 532 0 l 525 7 l 342 190 l 235 297 l 235 297 l 68 464 l 68 674 l 94 674 l 99 669 l 522 246 l 522 525 l 526 529 "},"o":{"ha":811,"x_min":0,"x_max":0,"o":"m 647 569 b 746 331 711 506 746 421 b 675 125 746 256 721 185 l 665 113 l 546 232 l 551 242 b 576 332 568 268 576 300 b 526 453 576 378 558 421 b 406 503 494 485 451 503 b 315 478 374 503 342 494 l 306 472 l 186 592 l 199 601 b 404 672 258 647 329 672 b 643 574 494 672 579 638 m 506 199 l 625 79 l 613 69 b 407 -1 553 24 482 -1 b 168 97 317 -1 232 33 b 69 336 104 161 69 246 b 140 542 69 411 94 482 l 150 554 l 269 435 l 264 425 b 239 335 247 399 239 367 b 289 214 239 289 257 246 b 410 164 321 182 364 164 b 500 189 442 164 474 172 "},"p":{"ha":692,"x_min":0,"x_max":0,"o":"m 617 518 b 622 472 621 503 622 488 b 581 351 622 428 608 386 b 565 335 576 346 571 340 b 426 276 528 297 479 276 l 218 276 l 71 424 l 71 669 l 426 669 b 565 611 479 669 528 649 b 617 519 590 586 608 554 m 439 439 b 451 474 447 449 451 461 b 450 486 451 478 451 482 b 435 513 447 496 442 506 b 394 529 424 524 410 529 l 238 529 l 238 507 l 329 415 l 394 415 b 435 432 410 415 424 421 b 439 436 436 433 438 435 l 439 436 m 71 350 l 238 183 l 238 1 l 71 1 "},"q":{"ha":811,"x_min":0,"x_max":0,"o":"m 631 107 l 738 0 l 404 0 b 211 61 335 0 268 21 b 107 179 168 92 132 132 b 68 336 82 228 68 282 b 156 563 68 419 99 500 b 221 617 175 583 197 601 b 406 672 276 653 340 672 b 644 574 496 672 581 638 b 743 335 708 510 743 425 b 688 151 743 269 724 206 l 678 138 l 557 258 l 561 267 b 576 336 571 289 576 313 b 526 457 576 382 558 425 b 406 507 494 489 451 507 b 336 492 382 507 358 501 b 285 457 317 483 300 472 b 276 447 282 454 279 451 b 236 338 250 417 236 378 b 286 217 236 292 254 249 b 404 167 318 185 360 167 l 404 167 l 407 167 l 572 167 l 576 163 "},"r":{"ha":825,"x_min":0,"x_max":0,"o":"m 758 -3 l 500 -3 l 496 1 l 238 258 l 238 258 l 71 425 l 71 671 l 521 671 b 558 667 533 671 546 669 b 658 614 596 660 631 642 b 710 522 683 589 701 557 b 715 476 714 507 715 492 b 714 456 715 469 715 463 b 651 314 711 401 689 351 b 510 253 614 276 564 254 l 510 253 l 507 253 b 499 253 504 253 501 253 m 490 410 b 503 411 494 410 499 410 b 511 414 506 411 508 413 b 532 426 519 417 526 421 b 536 431 533 428 535 429 b 536 431 536 431 536 431 l 536 431 b 536 431 536 431 536 431 l 536 431 b 538 435 536 432 536 433 b 538 439 538 436 538 438 b 542 447 539 442 540 444 b 546 471 544 454 546 463 b 546 475 546 472 546 474 b 546 479 546 476 546 478 b 546 488 546 482 546 485 b 542 496 544 490 543 493 l 250 496 l 329 417 l 489 417 m 74 342 l 240 175 l 240 -10 l 74 -10 "},"s":{"ha":811,"x_min":0,"x_max":0,"o":"m 742 672 l 742 506 l 479 506 l 313 672 m 756 256 b 764 194 761 236 764 215 b 756 133 764 174 761 153 b 681 28 743 92 717 54 b 556 -15 644 0 601 -15 l 93 -15 l 93 151 l 556 151 b 599 194 579 151 599 171 b 556 238 599 218 579 238 l 303 238 b 242 246 282 238 261 240 b 153 299 208 256 178 274 b 100 388 128 324 110 354 b 92 449 94 407 92 428 b 100 510 92 469 94 490 b 153 599 110 543 128 574 b 242 651 178 624 208 642 b 257 656 247 653 253 654 l 264 657 l 426 494 l 301 494 b 258 451 278 494 258 475 b 301 408 258 428 278 408 l 554 408 b 558 408 556 408 557 408 l 560 408 b 560 408 560 408 560 408 l 561 408 b 567 408 564 408 565 408 b 567 408 567 408 567 408 l 568 408 b 568 408 568 408 568 408 b 568 408 568 408 568 408 l 568 408 b 575 408 571 408 574 408 l 575 408 b 579 408 576 408 578 408 l 579 408 b 585 408 581 408 582 408 l 588 408 b 592 408 589 408 590 408 l 592 408 b 600 408 594 408 597 408 l 601 408 l 603 407 b 603 407 603 407 603 407 l 603 407 b 607 407 604 407 606 407 l 607 407 b 618 403 611 406 615 404 l 619 403 b 628 399 622 401 625 400 l 628 399 b 636 394 631 397 633 396 l 636 394 b 640 394 638 394 639 394 l 640 394 b 644 390 642 393 643 392 l 644 390 b 653 386 647 389 650 388 l 653 386 l 657 383 b 663 379 660 382 661 381 l 663 379 b 667 375 664 378 665 376 l 668 375 b 681 367 672 372 676 369 l 681 367 b 685 363 682 365 683 364 b 689 358 686 361 688 360 l 689 358 b 689 358 689 358 689 358 l 690 357 b 690 357 690 357 690 357 l 690 357 b 694 353 692 356 693 354 l 694 353 b 703 344 697 350 700 347 b 703 344 703 344 703 344 l 704 342 b 704 342 704 342 704 342 l 704 342 b 704 338 704 340 704 339 b 704 338 704 338 704 338 l 704 336 b 708 332 706 335 707 333 l 708 332 b 713 328 710 331 711 329 l 713 328 b 713 324 713 326 713 325 l 714 322 b 722 306 717 317 719 311 l 722 304 b 726 292 724 300 725 296 l 728 289 b 728 289 728 289 728 289 l 728 289 l 731 281 b 731 281 731 281 731 281 l 731 281 b 731 276 731 279 731 278 l 733 269 "},"t":{"ha":811,"x_min":0,"x_max":0,"o":"m 322 349 l 489 182 l 489 0 l 322 0 m 742 672 l 742 506 l 489 506 l 489 258 l 322 425 l 322 506 l 69 506 l 69 672 "},"u":{"ha":811,"x_min":0,"x_max":0,"o":"m 743 671 l 743 335 b 707 185 743 282 731 232 b 614 69 685 140 653 100 l 604 63 l 483 183 l 497 192 b 525 215 507 199 517 207 b 575 336 557 247 575 290 l 575 672 m 419 168 l 553 35 l 535 26 b 403 -1 493 8 449 -1 b 214 58 335 -1 269 19 b 68 336 122 121 68 225 l 68 521 l 235 354 l 235 336 b 285 215 235 290 253 247 b 406 165 317 183 360 165 b 418 165 410 165 414 165 m 232 432 l 65 599 l 65 674 l 232 674 "},"v":{"ha":796,"x_min":0,"x_max":0,"o":"m 335 518 l 489 193 l 486 188 l 397 0 l 69 690 l 254 690 m 725 690 l 536 292 l 536 292 l 518 256 l 426 450 l 429 457 l 540 690 "},"w":{"ha":1019,"x_min":0,"x_max":0,"o":"m 599 439 l 390 0 l 71 674 l 257 674 l 403 367 l 506 585 l 518 611 l 539 565 m 951 675 l 724 194 l 632 1 l 618 32 l 539 197 l 539 197 l 538 199 l 622 374 l 622 374 l 632 393 l 765 674 "},"x":{"ha":992,"x_min":0,"x_max":0,"o":"m 353 278 l 471 160 l 306 0 l 69 0 l 93 24 m 922 4 l 686 4 l 394 297 l 214 475 l 214 711 l 238 688 l 508 421 l 778 689 l 801 713 l 801 476 l 797 472 l 626 303 l 840 89 l 901 26 "},"y":{"ha":1047,"x_min":0,"x_max":0,"o":"m 440 226 l 607 60 l 607 0 l 440 0 m 976 674 l 606 303 l 606 138 l 582 160 l 439 303 l 439 303 l 68 674 l 304 674 l 308 669 l 524 454 l 743 674 "},"z":{"ha":1047,"x_min":0,"x_max":0,"o":"m 474 167 l 307 0 l 71 0 l 576 506 l 179 506 l 179 672 l 978 672 l 472 167 m 550 167 l 854 167 l 854 0 l 383 0 "}," ":{"ha":660,"x_min":0,"x_max":0,"o":""}}}
